<svg width="100" height="100" viewBox="0 0 100 100" fill="none" xmlns="http://www.w3.org/2000/svg">
<path d="M46.4417 0H62.7916V75.6875C54.4041 77.2792 48.2458 77.9167 41.5583 77.9167C21.5958 77.9167 11.1917 68.8917 11.1917 51.5833C11.1917 34.9125 22.2333 24.0833 39.3292 24.0833C41.9833 24.0833 44 24.2958 46.4417 24.9333V0ZM46.4417 38.0958C44.6643 37.4955 42.7964 37.2079 40.9208 37.2458C32.6375 37.2458 27.8625 42.3417 27.8625 51.2625C27.8625 59.9708 32.4291 64.7458 40.8166 64.7458C42.6208 64.7458 44.1083 64.6417 46.4417 64.3208V38.0958ZM88.8083 25.25V63.1542C88.8083 76.2125 87.8541 82.4792 84.9875 87.8917C82.3333 93.0958 78.8292 96.3875 71.6083 99.9958L56.425 92.775C63.6458 89.3792 67.15 86.4042 69.3791 81.8375C71.7166 77.1667 72.4583 71.75 72.4583 57.525V25.2458L88.8083 25.25ZM72.4583 0.0875H88.8083V16.8625H72.4583V0.0875Z" fill="white"/>
</svg>
