<svg width="100" height="100" viewBox="0 0 100 100" fill="none" xmlns="http://www.w3.org/2000/svg">
<g clip-path="url(#clip0_33_57)">
<rect width="100" height="100" fill="#ECEEF4"/>
<path d="M93.6117 0H6.38399C2.86134 0 0 2.85702 0 6.38399V93.616C0 97.1343 2.86134 100 6.38399 100H93.6117C97.1343 100 99.9957 97.1387 99.9957 93.616V6.37967C99.9914 2.85702 97.1343 0 93.6117 0ZM45.4054 56.3624C45.4054 59.1416 45.1418 61.5102 44.6145 63.4639C44.0871 65.4175 43.2875 66.9865 42.2242 68.214C41.1566 69.4243 39.8211 70.319 38.2305 70.8766C36.6355 71.4428 34.7813 71.7194 32.6677 71.7194C30.8091 71.7194 29.1321 71.4255 27.6236 70.842C26.1151 70.2585 24.8401 69.4243 23.7854 68.3351C22.7265 67.2415 21.9139 65.9232 21.3434 64.3759C20.7685 62.8242 20.4832 61.0909 20.4832 59.1935V57.9487H26.4739C26.4739 63.5244 28.5399 66.3166 32.672 66.3166C33.731 66.3166 34.6689 66.1955 35.4988 65.9405C36.3243 65.6812 37.0246 65.2101 37.5994 64.5055C38.1743 63.8053 38.6065 62.8371 38.9047 61.5837C39.203 60.3302 39.3543 58.6964 39.3543 56.6779V25.4798H45.4141V56.3624H45.4054ZM78.8382 65.4175C78.2201 66.6796 77.3383 67.7818 76.2102 68.7241C75.0735 69.6663 73.686 70.3968 72.0565 70.9327C70.4314 71.4557 68.5987 71.7194 66.5802 71.7194C57.6331 71.7194 52.9089 68.1881 52.4291 61.1169H58.316C58.342 65.1107 61.078 67.1119 66.5154 67.1119C67.7213 67.1119 68.8019 66.9822 69.7312 66.7099C70.6604 66.4462 71.4385 66.0788 72.0522 65.612C72.6746 65.1452 73.1414 64.5877 73.4656 63.9523C73.7811 63.3212 73.9497 62.634 73.9497 61.8819C73.9497 61.0909 73.8243 60.4642 73.5866 59.9888C73.3446 59.509 72.8691 59.0811 72.1689 58.7094C71.473 58.342 70.5005 57.9789 69.2644 57.6288C68.0239 57.2657 66.403 56.8205 64.4061 56.2975C62.4611 55.8134 60.7754 55.3294 59.3664 54.8453C57.9487 54.3698 56.7903 53.7863 55.8869 53.0991C54.9793 52.4075 54.305 51.5603 53.8684 50.5533C53.4319 49.5418 53.2158 48.2668 53.2158 46.728C53.2158 45.3752 53.501 44.1174 54.0759 42.959C54.6508 41.8007 55.4677 40.7979 56.5396 39.9464C57.6029 39.0949 58.8952 38.4336 60.408 37.9495C61.9338 37.4654 63.6195 37.2277 65.4737 37.2277C74.1269 37.2277 78.527 40.3008 78.661 46.4557H72.8735C72.666 43.3826 70.3492 41.8396 65.9189 41.8396C64.9334 41.8396 64.0258 41.939 63.1829 42.1335C62.3401 42.328 61.6183 42.6089 60.9959 42.9763C60.3734 43.3437 59.898 43.7975 59.5479 44.3378C59.2064 44.8781 59.0335 45.5048 59.0335 46.2137C59.0335 46.8577 59.1157 47.385 59.2756 47.7956C59.4355 48.2106 59.8202 48.5996 60.4296 48.954C61.0391 49.3084 61.9424 49.6585 63.1311 50.0043C64.324 50.3501 65.9535 50.7737 68.0239 51.2794C70.0208 51.7592 71.754 52.2605 73.2279 52.7749C74.6931 53.2936 75.912 53.9203 76.8932 54.6551C77.87 55.3856 78.5875 56.2803 79.0629 57.3392C79.5297 58.3938 79.7675 59.7165 79.7675 61.2984C79.7675 62.7809 79.4519 64.1554 78.8382 65.4175Z" fill="#BCC2D3"/>
</g>
<defs>
<clipPath id="clip0_33_57">
<rect width="100" height="100" fill="white"/>
</clipPath>
</defs>
</svg>
