<svg width="80" height="80" viewBox="0 0 80 80" fill="none" xmlns="http://www.w3.org/2000/svg">
<path d="M51 0C45.7471 -6.26399e-08 40.5457 1.03463 35.6927 3.04482C30.8396 5.05501 26.4301 8.00139 22.7157 11.7157C19.0014 15.4301 16.055 19.8396 14.0448 24.6927C12.0346 29.5457 11 34.7471 11 40C11 45.2529 12.0346 50.4543 14.0448 55.3073C16.055 60.1604 19.0014 64.5699 22.7157 68.2843C26.4301 71.9986 30.8396 74.945 35.6927 76.9552C40.5457 78.9654 45.7471 80 51 80V78.0027C46.0094 78.0027 41.0677 77.0197 36.457 75.1099C31.8463 73.2001 27.6569 70.4008 24.128 66.872C20.5992 63.3431 17.7999 59.1537 15.8901 54.543C13.9803 49.9323 12.9973 44.9906 12.9973 40C12.9973 35.0094 13.9803 30.0677 15.8901 25.457C17.7999 20.8463 20.5992 16.6569 24.128 13.128C27.6569 9.59916 31.8463 6.7999 36.457 4.89009C41.0677 2.98028 46.0094 1.99731 51 1.99731V0Z" fill="#9F8EDA"/>
<rect x="20" y="10" width="60" height="60" rx="30" fill="#9F8EDA"/>
</svg>
