<svg width="62" height="96" viewBox="0 0 62 96" fill="none" xmlns="http://www.w3.org/2000/svg">
<path d="M20.3281 47.512C19.7474 62.9267 10.2314 66.6227 3.49529 65.8517L3.00003 67.5677L34.2178 79.3183L34.795 75.3496C33.3657 74.4864 30.0436 72.8566 27.3835 70.5243C22.0541 65.5605 22.1426 59.289 24.4523 54.4158C27.0726 49.5876 33.1573 49.1777 37.2752 50.806C44.8825 53.8135 45.1779 67.8928 45.8749 76.0514C45.9481 76.9079 46.0183 77.7283 46.093 78.4964L46.3994 83.363L48.2136 84.5122L48.2136 47.512L20.3281 47.512Z" fill="#C7CED3"/>
<path d="M20.3281 47.512C19.7473 32.0976 10.2313 28.4011 3.49526 29.1724L3 27.4559L34.2177 15.7055L34.795 19.6745C33.3656 20.5374 30.0436 22.1676 27.3835 24.4999C22.0541 29.4633 22.1426 35.7352 24.4523 40.6084C27.0726 45.4364 33.1573 45.8462 37.2751 44.2181C44.8825 41.2103 45.1779 27.1309 45.8749 18.9729C45.9481 18.1162 46.0183 17.2955 46.093 16.5277L46.3994 11.6607L48.2135 10.5121L48.2135 47.512L20.3281 47.512Z" fill="#C7CED3"/>
<path d="M20.3281 47.512C19.7473 62.9267 10.2313 66.6227 3.49525 65.8516L3 67.5677L34.2177 79.3183L34.795 75.3496C33.3656 74.4864 30.0436 72.8566 27.3835 70.5243C22.0541 65.5605 22.1426 59.2889 24.4523 54.4158C27.0726 49.5875 33.1573 49.1777 37.2751 50.806C44.8825 53.8135 45.1779 67.8928 45.8749 76.0513C45.9481 76.9079 46.0183 77.7283 46.093 78.4964L46.3994 83.363L48.2135 84.5121L48.2135 47.512M20.3281 47.512L48.2135 47.512M20.3281 47.512C19.7473 32.0976 10.2313 28.4011 3.49526 29.1724L3 27.4559L34.2177 15.7055L34.795 19.6745C33.3656 20.5374 30.0436 22.1676 27.3835 24.4999C22.0541 29.4633 22.1426 35.7352 24.4523 40.6084C27.0726 45.4364 33.1573 45.8462 37.2751 44.2181C44.8825 41.2103 45.1779 27.1309 45.8749 18.9729C45.9481 18.1162 46.0183 17.2955 46.093 16.5277L46.3994 11.6607L48.2135 10.5121L48.2135 47.512" stroke="#C7CED3" stroke-width="4.69345"/>
<rect x="57.2135" y="0.012146" width="4" height="95" fill="#C7CED3"/>
</svg>
