<svg width="604" height="70" viewBox="0 0 604 70" fill="none" xmlns="http://www.w3.org/2000/svg">
<path d="M23.4911 68.7374V19.4759H0V1.9093H65.2159V19.4759H41.2325V68.7374H23.4911Z" fill="#212121"/>
<path d="M97.504 69.6929C91.9185 69.6929 86.8264 68.8324 82.2266 67.1151C77.6269 65.3331 73.6569 62.8809 70.3168 59.7623C66.9766 56.5829 64.403 52.8894 62.5962 48.6894C60.7891 44.4248 59.8855 39.8098 59.8855 34.846C59.8855 29.8819 60.7891 25.2992 62.5962 21.0986C64.4578 16.8343 67.0589 13.1427 70.399 10.0241C73.7392 6.842 77.6817 4.39135 82.2266 2.67292C86.8264 0.890896 91.8914 -0.00012207 97.4218 -0.00012207C102.952 -0.00012207 107.99 0.890896 112.535 2.67292C117.134 4.39135 121.104 6.842 124.445 10.0241C127.785 13.1427 130.358 16.8343 132.165 21.0986C134.027 25.2992 134.958 29.8499 134.958 34.7508C134.958 39.7793 134.027 44.4248 132.165 48.6894C130.358 52.8894 127.785 56.5829 124.445 59.7623C121.104 62.8809 117.134 65.3331 112.535 67.1151C107.99 68.8324 102.98 69.6929 97.504 69.6929ZM97.4218 50.5971C100.269 50.5971 102.87 50.2163 105.225 49.4548C107.634 48.6247 109.687 47.5128 111.385 46.1116C113.137 44.6494 114.479 42.9626 115.41 41.0511C116.395 39.1434 116.888 37.072 116.888 34.846C116.888 32.6185 116.395 30.5501 115.41 28.6405C114.479 26.7313 113.137 25.0765 111.385 23.6764C109.687 22.2123 107.634 21.0986 105.225 20.3347C102.87 19.5073 100.269 19.0938 97.4218 19.0938C94.5744 19.0938 91.9459 19.5073 89.5367 20.3347C87.182 21.0986 85.1289 22.2123 83.3766 23.6764C81.6243 25.0765 80.2828 26.7313 79.3518 28.6405C78.4208 30.5501 77.9555 32.6185 77.9555 34.846C77.9555 37.072 78.4208 39.1434 79.3518 41.0511C80.2828 42.9626 81.6243 44.6494 83.3766 46.1116C85.1289 47.5128 87.182 48.6247 89.5367 49.4548C91.9459 50.2163 94.5744 50.5971 97.4218 50.5971Z" fill="#212121"/>
<path d="M168.987 69.3124C162.69 69.3124 157.187 67.9111 152.477 65.1086C147.768 62.3099 144.099 58.4603 141.471 53.5598C138.898 48.6592 137.611 43.058 137.611 36.7562V1.9093H155.516V36.3755C155.516 39.4293 156.091 42.1023 157.241 44.3945C158.391 46.683 159.979 48.465 162.005 49.7406C164.031 51.0124 166.358 51.6483 168.987 51.6483C171.725 51.6483 174.134 51.0124 176.215 49.7406C178.296 48.465 179.911 46.683 181.061 44.3945C182.265 42.1023 182.867 39.4293 182.867 36.3755V1.9093H200.362V36.7562C200.362 43.058 199.048 48.6592 196.42 53.5598C193.846 58.4603 190.205 62.3099 185.496 65.1086C180.842 67.9111 175.338 69.3124 168.987 69.3124Z" fill="#212121"/>
<path d="M240.272 69.6929C235.015 69.6929 230.114 68.8667 225.569 67.2103C221.079 65.5539 217.137 63.2007 213.742 60.1469C210.347 57.0284 207.691 53.3349 205.774 49.0702C203.913 44.8055 202.982 40.0649 202.982 34.846C202.982 29.6271 203.913 24.8854 205.774 20.6211C207.691 16.3568 210.319 12.6972 213.659 9.64222C217 6.52368 220.915 4.13698 225.405 2.48214C229.895 0.827293 234.768 -0.00012207 240.025 -0.00012207C243.639 -0.00012207 247.116 0.413388 250.457 1.24081C253.797 2.06823 256.918 3.21398 259.82 4.67768C262.777 6.14175 265.351 7.8282 267.541 9.73778L257.602 25.6812C256.452 24.5354 255.001 23.4217 253.249 22.3395C251.552 21.1941 249.526 20.2711 247.171 19.5709C244.871 18.8074 242.161 18.4255 239.039 18.4255C236.904 18.4255 234.796 18.7755 232.715 19.4757C230.634 20.112 228.718 21.1306 226.965 22.5307C225.213 23.8672 223.817 25.5856 222.777 27.686C221.736 29.7863 221.216 32.2686 221.216 35.1339C221.216 37.8679 221.764 40.2896 222.859 42.3876C224.009 44.4248 225.542 46.1421 227.458 47.5433C229.375 48.8798 231.51 49.9003 233.865 50.5971C236.274 51.2368 238.738 51.5529 241.257 51.5529C244.324 51.5529 247.007 51.0769 249.307 50.1212C251.607 49.1045 253.605 47.9241 255.303 46.5876C257.055 45.251 258.561 44.0745 259.82 43.0578L268.116 58.7152C266.418 60.2421 264.146 61.8642 261.298 63.5815C258.451 65.3026 255.22 66.7648 251.606 67.9756C248.047 69.118 244.269 69.6929 240.272 69.6929Z" fill="#212121"/>
<path d="M314.509 68.7374V1.9093H332.249V68.7374H314.509ZM268.76 68.7374V1.9093H286.501V68.7374H268.76ZM275.413 44.7753L275.577 26.8268H324.531V44.7753H275.413Z" fill="#212121"/>
<path d="M329.013 68.7374L357.925 1.9093H373.202L401.95 68.7374H384.046L368.686 33.7961C368.027 32.2688 367.425 30.8683 366.877 29.5954C366.386 28.2589 365.948 26.9859 365.563 25.7766C365.182 24.5676 364.825 23.4219 364.497 22.3397C364.166 21.1944 363.865 20.0806 363.591 18.9984H367.124C366.85 20.1442 366.523 21.3216 366.138 22.5309C365.811 23.6766 365.426 24.854 364.988 26.0633C364.55 27.2727 364.059 28.5136 363.511 29.7865C363.02 31.0595 362.471 32.396 361.87 33.7961L346.589 68.7374H329.013ZM342.896 59.7626L348.314 45.731H382.976L385.276 59.7626H342.896Z" fill="#212121"/>
<path d="M398.782 68.7374V1.9093H415.456L453.404 44.3945L450.445 43.058C450.118 40.1908 449.844 37.6472 449.623 35.4197C449.459 33.1914 449.322 31.1866 449.212 29.4046C449.105 27.559 449.021 25.8406 448.968 24.2493C448.911 22.6581 448.858 21.0668 448.804 19.4759C448.804 17.8847 448.804 16.1662 448.804 14.3206V1.9093H465.886V68.7374H449.048L408.393 21.9582L414.222 24.2493C414.386 25.0132 414.554 25.8722 414.717 26.8268C414.881 27.7182 415.018 28.8 415.129 30.0729C415.292 31.3458 415.429 32.9051 415.536 34.751C415.646 36.5963 415.73 38.8238 415.784 41.4321C415.837 43.9795 415.867 47.0028 415.867 50.5022V68.7374H398.782Z" fill="#212121"/>
<path d="M483.508 53.3656L478.006 37.9023L517.595 1.9093H539.196L483.508 53.3656ZM472.256 68.7374V1.9093H489.996V68.7374H472.256ZM519.072 68.7374L495.007 35.1341L505.437 21.9582L539.935 68.7374H519.072Z" fill="#212121"/>
<path d="M531.067 68.7374L559.975 1.9093H575.255L604 68.7374H586.096L570.736 33.7961C570.081 32.2688 569.479 30.8683 568.931 29.5954C568.436 28.2589 567.998 26.9859 567.617 25.7766C567.233 24.5676 566.875 23.4219 566.547 22.3397C566.22 21.1944 565.919 20.0806 565.645 18.9984H569.174C568.904 20.1442 568.573 21.3216 568.192 22.5309C567.861 23.6766 567.48 24.854 567.042 26.0633C566.604 27.2727 566.109 28.5136 565.561 29.7865C565.07 31.0595 564.521 32.396 563.92 33.7961L548.643 68.7374H531.067ZM544.946 59.7626L550.368 45.731H585.03L587.33 59.7626H544.946Z" fill="#212121"/>
</svg>