<svg width="142" height="64" viewBox="0 0 142 64" fill="none" xmlns="http://www.w3.org/2000/svg">
<path d="M70.9998 51.4806C97.2464 52.4695 103.54 68.6724 102.227 80.1419L105.149 80.9852L125.156 27.8307L118.399 26.8478C116.929 29.2815 114.154 34.938 110.183 39.4674C101.731 48.5417 91.0524 48.3911 82.7548 44.4584C74.5338 39.9968 73.8359 29.6363 76.6085 22.6248C81.7294 9.67177 105.702 9.16882 119.594 7.98196C121.052 7.85735 122.449 7.73789 123.757 7.61065L132.043 7.089L134 4H70.9998V51.4806Z" fill="#C7CED3"/>
<path d="M70.9998 51.4806C44.7536 52.4695 38.4596 68.6724 39.7729 80.1419L36.8503 80.9852L16.8427 27.8307L23.6007 26.8478C25.0701 29.2815 27.8458 34.938 31.817 39.4674C40.2682 48.5417 50.9474 48.3911 59.2449 44.4584C67.4656 39.9968 68.1634 29.6363 65.3913 22.6248C60.2698 9.67177 36.2968 9.16882 22.4061 7.98196C20.9474 7.85735 19.55 7.73789 18.2428 7.61065L9.95572 7.089L8 4H70.9998V51.4806Z" fill="#C7CED3"/>
<path d="M70.9997 51.4806C97.2464 52.4695 103.54 68.6724 102.227 80.1419L105.149 80.9852L125.156 27.8307L118.399 26.8478C116.929 29.2815 114.154 34.938 110.183 39.4674C101.731 48.5417 91.0524 48.3911 82.7548 44.4584C74.5338 39.9968 73.8359 29.6363 76.6085 22.6248C81.7294 9.67177 105.702 9.16882 119.594 7.98196C121.052 7.85735 122.449 7.73789 123.757 7.61065L132.043 7.089L134 4H70.9997M70.9997 51.4806V4M70.9997 51.4806C44.7536 52.4695 38.4596 68.6724 39.7729 80.1419L36.8503 80.9852L16.8427 27.8307L23.6007 26.8478C25.0701 29.2815 27.8458 34.938 31.817 39.4674C40.2682 48.5417 50.9474 48.3911 59.2449 44.4584C67.4656 39.9968 68.1634 29.6363 65.3913 22.6248C60.2697 9.67177 36.2967 9.16882 22.4061 7.98196C20.9474 7.85735 19.55 7.73789 18.2428 7.61065L9.95572 7.089L8 4H70.9997" stroke="#C7CED3" stroke-width="7.99154"/>
</svg>
