<svg width="1587" height="476" viewBox="0 0 1587 476" fill="none" xmlns="http://www.w3.org/2000/svg">
<path d="M271.399 373.236C349.472 376.177 368.192 424.374 364.287 458.492L372.978 461L432.493 302.887L412.392 299.963C408.02 307.202 399.766 324.028 387.953 337.501C362.812 364.494 331.047 364.046 306.365 352.347C281.911 339.076 279.835 308.258 288.083 287.401C303.315 248.871 374.625 247.375 415.947 243.845C420.285 243.474 424.44 243.119 428.33 242.74L452.979 241.189L458.799 232H271.399V373.236Z" fill="#212121"/>
<path d="M271.399 373.236C193.327 376.177 174.605 424.374 178.512 458.492L169.818 461L110.303 302.887L130.406 299.963C134.777 307.202 143.033 324.028 154.846 337.501C179.985 364.494 211.751 364.046 236.433 352.347C260.886 339.076 262.962 308.258 254.716 287.401C239.481 248.871 168.171 247.375 126.852 243.845C122.513 243.474 118.357 243.119 114.468 242.74L89.8175 241.189L84 232H271.399V373.236Z" fill="#212121"/>
<path d="M271.399 373.236C349.472 376.177 368.192 424.374 364.287 458.492L372.978 461L432.493 302.887L412.392 299.963C408.02 307.202 399.766 324.028 387.953 337.501C362.812 364.494 331.047 364.046 306.365 352.347C281.911 339.076 279.835 308.258 288.083 287.401C303.315 248.871 374.624 247.375 415.947 243.845C420.285 243.474 424.44 243.119 428.33 242.74L452.979 241.189L458.799 232H271.399M271.399 373.236V232M271.399 373.236C193.327 376.177 174.605 424.374 178.512 458.492L169.818 461L110.303 302.887L130.406 299.963C134.777 307.202 143.033 324.028 154.846 337.501C179.985 364.494 211.751 364.046 236.433 352.347C260.886 339.076 262.962 308.258 254.716 287.401C239.481 248.871 168.171 247.375 126.852 243.845C122.513 243.474 118.356 243.119 114.468 242.74L89.8175 241.189L84 232H271.399" stroke="#212121" stroke-width="23.7716"/>
<path d="M61.693 180.52V51.1479H0V5.01392H171.272V51.1479H108.286V180.52H61.693Z" fill="#212121"/>
<path d="M256.068 183.03C241.399 183.03 228.026 180.77 215.946 176.26C203.866 171.58 193.44 165.14 184.668 156.95C175.896 148.6 169.137 138.9 164.392 127.87C159.646 116.67 157.273 104.55 157.273 91.514C157.273 78.477 159.646 66.442 164.392 55.41C169.281 44.211 176.112 34.516 184.884 26.326C193.656 17.969 204.01 11.533 215.946 7.02002C228.026 2.34002 241.328 0 255.852 0C270.376 0 283.606 2.34002 295.542 7.02002C307.622 11.533 318.048 17.969 326.82 26.326C335.592 34.516 342.351 44.211 347.096 55.41C351.986 66.442 354.431 78.393 354.431 91.264C354.431 104.47 351.986 116.67 347.096 127.87C342.351 138.9 335.592 148.6 326.82 156.95C318.048 165.14 307.622 171.58 295.542 176.26C283.606 180.77 270.448 183.03 256.068 183.03ZM255.852 132.88C263.33 132.88 270.161 131.88 276.344 129.88C282.672 127.7 288.064 124.78 292.522 121.1C297.124 117.26 300.647 112.83 303.092 107.81C305.68 102.8 306.975 97.36 306.975 91.514C306.975 85.664 305.68 80.232 303.092 75.217C300.647 70.203 297.124 65.857 292.522 62.18C288.064 58.335 282.672 55.41 276.344 53.404C270.161 51.231 263.33 50.145 255.852 50.145C248.374 50.145 241.471 51.231 235.144 53.404C228.96 55.41 223.568 58.335 218.966 62.18C214.364 65.857 210.841 70.203 208.396 75.217C205.951 80.232 204.729 85.664 204.729 91.514C204.729 97.36 205.951 102.8 208.396 107.81C210.841 112.83 214.364 117.26 218.966 121.1C223.568 124.78 228.96 127.7 235.144 129.88C241.471 131.88 248.374 132.88 255.852 132.88Z" fill="#212121"/>
<path d="M443.798 182.03C427.26 182.03 412.808 178.35 400.44 170.99C388.073 163.64 378.438 153.53 371.536 140.66C364.777 127.79 361.397 113.08 361.397 96.53V5.01392H408.422V95.53C408.422 103.55 409.932 110.57 412.951 116.59C415.971 122.6 420.142 127.28 425.463 130.63C430.783 133.97 436.895 135.64 443.798 135.64C450.988 135.64 457.316 133.97 462.78 130.63C468.245 127.28 472.487 122.6 475.507 116.59C478.671 110.57 480.252 103.55 480.252 95.53V5.01392H526.198V96.53C526.198 113.08 522.747 127.79 515.844 140.66C509.085 153.53 499.522 163.64 487.155 170.99C474.932 178.35 460.479 182.03 443.798 182.03Z" fill="#212121"/>
<path d="M631.009 183.03C617.204 183.03 604.333 180.86 592.397 176.51C580.605 172.16 570.251 165.98 561.335 157.96C552.419 149.77 545.445 140.07 540.411 128.87C535.522 117.67 533.077 105.22 533.077 91.514C533.077 77.808 535.522 65.355 540.411 54.156C545.445 42.957 552.347 33.346 561.119 25.323C569.892 17.133 580.174 10.865 591.966 6.51898C603.758 2.17298 616.556 0 630.362 0C639.853 0 648.985 1.08597 657.757 3.25897C666.529 5.43197 674.726 8.44097 682.347 12.285C690.113 16.13 696.872 20.559 702.624 25.574L676.523 67.445C673.503 64.436 669.693 61.511 665.091 58.669C660.633 55.661 655.312 53.237 649.128 51.398C643.089 49.393 635.97 48.39 627.773 48.39C622.165 48.39 616.628 49.309 611.164 51.148C605.699 52.819 600.666 55.494 596.064 59.171C591.462 62.681 587.795 67.194 585.063 72.71C582.331 78.226 580.965 84.745 580.965 92.27C580.965 99.45 582.403 105.81 585.279 111.32C588.299 116.67 592.325 121.18 597.358 124.86C602.392 128.37 608 131.05 614.184 132.88C620.511 134.56 626.982 135.39 633.597 135.39C641.651 135.39 648.697 134.14 654.737 131.63C660.777 128.96 666.026 125.86 670.484 122.35C675.085 118.84 679.04 115.75 682.347 113.08L704.134 154.2C699.676 158.21 693.708 162.47 686.23 166.98C678.752 171.5 670.268 175.34 660.777 178.52C651.429 181.52 641.507 183.03 631.009 183.03Z" fill="#212121"/>
<path d="M825.973 180.52V5.01392H872.563V180.52H825.973ZM705.824 180.52V5.01392H752.417V180.52H705.824ZM723.297 117.59L723.728 70.4529H852.293V117.59H723.297Z" fill="#212121"/>
<path d="M864.063 180.52L939.993 5.01392H980.113L1055.61 180.52H1008.59L968.253 88.7559C966.523 84.7449 964.943 81.0669 963.503 77.7239C962.213 74.2139 961.063 70.8709 960.053 67.6949C959.053 64.5199 958.113 61.5109 957.253 58.6689C956.383 55.6609 955.593 52.7359 954.873 49.8939H964.153C963.433 52.9029 962.573 55.995 961.563 59.171C960.703 62.18 959.693 65.2719 958.543 68.4479C957.393 71.6239 956.103 74.8829 954.663 78.226C953.373 81.569 951.933 85.0789 950.353 88.7559L910.223 180.52H864.063ZM900.523 156.95L914.753 120.1H1005.78L1011.82 156.95H900.523Z" fill="#212121"/>
<path d="M1047.29 180.52V5.01392H1091.08L1190.74 116.59L1182.97 113.08C1182.11 105.55 1181.39 98.87 1180.81 93.02C1180.38 87.168 1180.02 81.903 1179.73 77.223C1179.45 72.376 1179.23 67.863 1179.09 63.684C1178.94 59.505 1178.8 55.326 1178.66 51.1479C1178.66 46.9689 1178.66 42.4559 1178.66 37.6089V5.01392H1223.52V180.52H1179.3L1072.53 57.6669L1087.84 63.684C1088.27 65.69 1088.71 67.9459 1089.14 70.4529C1089.57 72.7939 1089.93 75.635 1090.22 78.978C1090.65 82.321 1091.01 86.4159 1091.29 91.2639C1091.58 96.1099 1091.8 101.96 1091.94 108.81C1092.08 115.5 1092.16 123.44 1092.16 132.63V180.52H1047.29Z" fill="#212121"/>
<path d="M1269.8 140.15L1255.35 99.5399L1359.32 5.01392H1416.05L1269.8 140.15ZM1240.25 180.52V5.01392H1286.84V180.52H1240.25ZM1363.2 180.52L1300 92.27L1327.39 57.6669L1417.99 180.52H1363.2Z" fill="#212121"/>
<path d="M1394.7 180.52L1470.62 5.01392H1510.75L1586.24 180.52H1539.22L1498.88 88.7559C1497.16 84.7449 1495.58 81.0669 1494.14 77.7239C1492.84 74.2139 1491.69 70.8709 1490.69 67.6949C1489.68 64.5199 1488.74 61.5109 1487.88 58.6689C1487.02 55.6609 1486.23 52.7359 1485.51 49.8939H1494.78C1494.07 52.9029 1493.2 55.995 1492.2 59.171C1491.33 62.18 1490.33 65.2719 1489.18 68.4479C1488.03 71.6239 1486.73 74.8829 1485.29 78.226C1484 81.569 1482.56 85.0789 1480.98 88.7559L1440.86 180.52H1394.7ZM1431.15 156.95L1445.39 120.1H1536.42L1542.46 156.95H1431.15Z" fill="#212121"/>
</svg>
