<svg width="329" height="38" viewBox="0 0 329 38" fill="none" xmlns="http://www.w3.org/2000/svg">
<path d="M12.7956 37.4789V10.6191H0V1.04095H35.5232V10.6191H22.4594V37.4789H12.7956Z" fill="#C7CED3"/>
<path d="M53.1106 38C50.0681 38 47.2944 37.5308 44.789 36.5944C42.2835 35.6228 40.121 34.2857 38.3016 32.5854C36.4823 30.8518 35.0804 28.8379 34.0962 26.5479C33.1119 24.2226 32.6197 21.7063 32.6197 18.9998C32.6197 16.2931 33.1119 13.7944 34.0962 11.504C35.1102 9.17892 36.5271 7.16608 38.3464 5.4657C40.1658 3.73065 42.3133 2.39444 44.789 1.45747C47.2944 0.485826 50.0534 0 53.0658 0C56.0782 0 58.8222 0.485826 61.2978 1.45747C63.8033 2.39444 65.9658 3.73065 67.7851 5.4657C69.6045 7.16608 71.0064 9.17892 71.9906 11.504C73.0048 13.7944 73.5119 16.2757 73.5119 18.9479C73.5119 21.6897 73.0048 24.2226 71.9906 26.5479C71.0064 28.8379 69.6045 30.8518 67.7851 32.5854C65.9658 34.2857 63.8033 35.6228 61.2978 36.5944C58.8222 37.5308 56.0931 38 53.1106 38ZM53.0658 27.588C54.6168 27.588 56.0336 27.3804 57.316 26.9652C58.6285 26.5126 59.7468 25.9063 60.6715 25.1423C61.6259 24.3451 62.3566 23.4253 62.8638 22.3831C63.4005 21.3429 63.6691 20.2135 63.6691 18.9998C63.6691 17.7852 63.4005 16.6575 62.8638 15.6163C62.3566 14.5753 61.6259 13.673 60.6715 12.9096C59.7468 12.1113 58.6285 11.504 57.316 11.0875C56.0336 10.6364 54.6168 10.4109 53.0658 10.4109C51.5148 10.4109 50.0831 10.6364 48.7708 11.0875C47.4882 11.504 46.3698 12.1113 45.4153 12.9096C44.4608 13.673 43.7301 14.5753 43.223 15.6163C42.7159 16.6575 42.4625 17.7852 42.4625 18.9998C42.4625 20.2135 42.7159 21.3429 43.223 22.3831C43.7301 23.4253 44.4608 24.3451 45.4153 25.1423C46.3698 25.9063 47.4882 26.5126 48.7708 26.9652C50.0831 27.3804 51.5148 27.588 53.0658 27.588Z" fill="#C7CED3"/>
<path d="M92.0474 37.7924C88.6173 37.7924 85.6198 37.0283 83.0546 35.5003C80.4895 33.9743 78.4912 31.8753 77.0596 29.2033C75.6578 26.5313 74.9567 23.4772 74.9567 20.0412V1.04095H84.7101V19.8336C84.7101 21.4986 85.0233 22.9561 85.6494 24.2059C86.2758 25.4537 87.1409 26.4254 88.2445 27.1209C89.348 27.8143 90.6156 28.161 92.0474 28.161C93.5386 28.161 94.8511 27.8143 95.9844 27.1209C97.1179 26.4254 97.9977 25.4537 98.6241 24.2059C99.2803 22.9561 99.6082 21.4986 99.6082 19.8336V1.04095H109.138V20.0412C109.138 23.4772 108.422 26.5313 106.99 29.2033C105.588 31.8753 103.605 33.9743 101.04 35.5003C98.5048 37.0283 95.5072 37.7924 92.0474 37.7924Z" fill="#C7CED3"/>
<path d="M130.877 38C128.013 38 125.344 37.5495 122.868 36.6463C120.422 35.7432 118.275 34.4601 116.426 32.795C114.576 31.0947 113.13 29.0808 112.086 26.7555C111.072 24.4302 110.565 21.8454 110.565 18.9998C110.565 16.1542 111.072 13.5688 112.086 11.2437C113.13 8.91857 114.561 6.92317 116.381 5.25746C118.2 3.55709 120.333 2.25575 122.779 1.35345C125.224 0.451146 127.879 0 130.742 0C132.711 0 134.605 0.225465 136.424 0.676615C138.244 1.12777 139.944 1.75248 141.524 2.55056C143.135 3.34884 144.537 4.26838 145.73 5.30957L140.317 14.0027C139.69 13.378 138.9 12.7707 137.945 12.1806C137.021 11.5561 135.917 11.0529 134.635 10.6711C133.382 10.2548 131.905 10.0466 130.205 10.0466C129.042 10.0466 127.894 10.2373 126.761 10.6192C125.627 10.9661 124.583 11.5215 123.629 12.2849C122.674 13.0136 121.914 13.9506 121.347 15.0958C120.78 16.241 120.497 17.5944 120.497 19.1568C120.497 20.6474 120.795 21.9679 121.392 23.1118C122.018 24.2226 122.853 25.1589 123.897 25.923C124.941 26.6517 126.104 27.2081 127.387 27.588C128.699 27.9368 130.041 28.1092 131.413 28.1092C133.084 28.1092 134.545 27.8496 135.798 27.3285C137.051 26.7742 138.139 26.1306 139.064 25.4018C140.018 24.6731 140.839 24.0316 141.524 23.4772L146.043 32.0144C145.119 32.847 143.881 33.7314 142.33 34.6678C140.779 35.6062 139.019 36.4034 137.051 37.0636C135.112 37.6865 133.054 38 130.877 38Z" fill="#C7CED3"/>
<path d="M171.314 37.4789V1.04095H180.977V37.4789H171.314ZM146.394 37.4789V1.04095H156.058V37.4789H146.394ZM150.018 24.4136L150.107 14.6272H176.773V24.4136H150.018Z" fill="#C7CED3"/>
<path d="M179.214 37.4789L194.962 1.04095H203.284L218.943 37.4789H209.191L200.824 18.4272C200.465 17.5944 200.137 16.8308 199.839 16.1367C199.571 15.408 199.332 14.7139 199.123 14.0546C198.916 13.3954 198.721 12.7707 198.542 12.1806C198.362 11.5561 198.198 10.9488 198.049 10.3588H199.973C199.824 10.9835 199.646 11.6254 199.436 12.2848C199.258 12.9096 199.048 13.5515 198.81 14.2109C198.571 14.8703 198.304 15.5469 198.005 16.241C197.737 16.935 197.439 17.6637 197.111 18.4272L188.788 37.4789H179.214ZM186.776 32.5853L189.727 24.9347H208.608L209.861 32.5853H186.776Z" fill="#C7CED3"/>
<path d="M217.217 37.4789V1.04095H226.3L246.97 24.2059L245.358 23.4772C245.18 21.9139 245.031 20.527 244.91 19.3124C244.821 18.0975 244.747 17.0044 244.686 16.0327C244.628 15.0264 244.583 14.0894 244.554 13.2218C244.523 12.3542 244.493 11.4865 244.464 10.6191C244.464 9.7515 244.464 8.81453 244.464 7.80821V1.04095H253.769V37.4789H244.597L222.452 11.9726L225.628 13.2218C225.717 13.6383 225.808 14.1067 225.897 14.6272C225.986 15.1132 226.061 15.703 226.121 16.3971C226.21 17.0912 226.285 17.9413 226.343 18.9479C226.403 19.954 226.449 21.1685 226.478 22.5907C226.507 23.9796 226.524 25.6281 226.524 27.5361V37.4789H217.217Z" fill="#C7CED3"/>
<path d="M263.368 29.0974L260.371 20.6661L281.935 1.04095H293.701L263.368 29.0974ZM257.239 37.4789V1.04095H266.902V37.4789H257.239ZM282.74 37.4789L269.631 19.1567L275.312 11.9726L294.104 37.4789H282.74Z" fill="#C7CED3"/>
<path d="M289.273 37.4789L305.019 1.04095H313.343L329 37.4789H319.248L310.881 18.4272C310.524 17.5944 310.196 16.8308 309.898 16.1367C309.628 15.408 309.39 14.7139 309.182 14.0546C308.973 13.3954 308.778 12.7707 308.599 12.1806C308.421 11.5561 308.257 10.9488 308.108 10.3588H310.03C309.883 10.9835 309.703 11.6254 309.495 12.2848C309.315 12.9096 309.107 13.5515 308.869 14.2109C308.63 14.8703 308.361 15.5469 308.062 16.241C307.795 16.935 307.496 17.6637 307.168 18.4272L298.847 37.4789H289.273ZM296.833 32.5853L299.787 24.9347H318.667L319.92 32.5853H296.833Z" fill="#C7CED3"/>
</svg>
