<svg width="100" height="94" viewBox="0 0 100 94" fill="none" xmlns="http://www.w3.org/2000/svg">
<path d="M38.0134 44.1583C28.8153 38.8478 24.3309 28.0214 27.0798 17.7623C29.8287 7.50312 39.1256 0.369385 49.7466 0.369385C60.3677 0.369385 69.6645 7.50312 72.4134 17.7623C75.1624 28.0214 70.6779 38.8478 61.4798 44.1583L54.4144 31.9207C58.0737 29.808 59.8578 25.501 58.7642 21.4196C57.6706 17.3382 53.972 14.5002 49.7466 14.5002C45.5213 14.5002 41.8227 17.3382 40.7291 21.4196C39.6355 25.501 41.4195 29.808 45.0788 31.9207L38.0134 44.1583Z" fill="#BCC2D3"/>
<path d="M88.2647 49.8395C97.4628 55.15 101.947 65.9764 99.1983 76.2356C96.4494 86.4947 87.1525 93.6284 76.5315 93.6284C65.9104 93.6284 56.6136 86.4947 53.8646 76.2356C51.1157 65.9764 55.6002 55.15 64.7982 49.8395L71.8636 62.0771C68.2044 64.1898 66.4203 68.4969 67.5139 72.5782C68.6075 76.6596 72.3061 79.4976 76.5315 79.4976C80.7568 79.4976 84.4554 76.6596 85.549 72.5782C86.6426 68.4969 84.8585 64.1898 81.1993 62.0771L88.2647 49.8395Z" fill="#BCC2D3"/>
<path d="M46.9334 70.162C46.9334 80.7831 39.7997 90.0799 29.5405 92.8289C19.2814 95.5778 8.45497 91.0933 3.14445 81.8953C-2.16606 72.6972 -0.636502 61.079 6.87371 53.5688C14.3839 46.0586 26.0021 44.529 35.2002 49.8395L28.1348 62.0771C24.4755 59.9645 19.8535 60.573 16.8657 63.5607C13.8779 66.5485 13.2694 71.1706 15.3821 74.8299C17.4948 78.4891 21.8018 80.2732 25.8832 79.1796C29.9646 78.086 32.8026 74.3874 32.8026 70.162H46.9334Z" fill="#BCC2D3"/>
</svg>
