<svg width="100" height="100" viewBox="0 0 100 100" fill="none" xmlns="http://www.w3.org/2000/svg">
<path d="M49.9974 -0.00268555C36.1468 -0.00268555 24.9961 5.5753 24.9961 12.5006V22.3564L50.0288 22.456L49.924 24.9986H12.4928C5.57274 24.9986 0 36.1493 0 50.0052C0 63.8453 5.57274 75.0012 12.498 75.0012H22.4954C22.4954 68.6998 22.8834 63.9292 23.806 60.2437C24.7287 56.5583 26.228 53.9161 28.4351 52.1493C32.8493 48.6159 39.3709 48.7522 48.7497 48.7522C59.3709 48.7522 66.0236 48.6107 69.7195 45.8689C71.5701 44.5058 72.8598 42.4718 73.73 39.1376C74.6003 35.7981 74.9987 31.2005 74.9987 24.9986H77.4993C77.4993 31.3053 77.1114 36.076 76.1468 39.7666C75.1822 43.4626 73.578 46.1258 71.2136 47.8767C66.4692 51.3892 59.3709 51.2529 48.7497 51.2529C39.3709 51.2529 33.3945 51.3839 29.9974 54.0995C28.2988 55.4626 27.0616 57.5071 26.228 60.8518C25.3893 64.1965 24.9961 68.8046 24.9961 75.0012V87.4993C24.9961 94.4246 36.1468 100.003 50.0026 100.003C63.848 100.003 74.9987 94.4246 74.9987 87.4993V77.5438L50.0708 77.5491V75.0012H87.502C94.422 75.0012 100 63.8505 100 49.9999C100 36.1493 94.422 24.9986 87.4967 24.9986H74.9987V12.5006C74.9987 5.5753 63.848 0.00255716 49.9974 0.00255716V-0.00268555ZM36.2097 7.87674H36.2464C37.4713 7.8809 38.6446 8.37097 39.5086 9.23936C40.3725 10.1077 40.8566 11.2835 40.8545 12.5084C40.8524 13.7334 40.3644 14.9075 39.4974 15.7729C38.6305 16.6383 37.4556 17.1244 36.2307 17.1244C35.0057 17.1244 33.8308 16.6383 32.9639 15.7729C32.097 14.9075 31.6089 13.7334 31.6068 12.5084C31.6047 11.2835 32.0888 10.1077 32.9528 9.23936C33.8167 8.37097 34.99 7.8809 36.2149 7.87674H36.2097ZM63.7169 82.8754H63.7484C64.9733 82.8796 66.1466 83.3697 67.0105 84.238C67.8745 85.1064 68.3586 86.2821 68.3565 87.5071C68.3544 88.7321 67.8663 89.9061 66.9994 90.7716C66.1325 91.637 64.9576 92.1231 63.7326 92.1231C62.5077 92.1231 61.3328 91.637 60.4659 90.7716C59.5989 89.9061 59.1109 88.7321 59.1088 87.5071C59.1067 86.2821 59.5908 85.1064 60.4547 84.238C61.3187 83.3697 62.4919 82.8796 63.7169 82.8754Z" fill="#BCC2D3"/>
</svg>
